<svg width="351" height="36" viewBox="0 0 351 36" fill="none" xmlns="http://www.w3.org/2000/svg">
<g clip-path="url(#clip0_260_113)">
<path d="M0 14.5L52 8L162.5 14.5L166 38H0V14.5Z" fill="url(#paint0_linear_260_113)"/>
<path fill-rule="evenodd" clip-rule="evenodd" d="M351.444 37.55H159.641L152.292 34.8211C145.28 32.3451 140.275 30.9281 134.326 29.2439L134.325 29.2439C132.475 28.7201 130.534 28.1704 128.412 27.555L105.433 21.1973L89.6633 17.5642L73.4428 14.3853L65.3325 13.4771C65.3325 13.4771 56.333 12.7697 53.1672 12.5688C52.2688 12.5118 51.4827 12.4553 50.7449 12.4023L50.7445 12.4023C48.8824 12.2686 47.3284 12.157 45.0569 12.1147C40.3036 12.0261 37.6272 12.1465 32.8915 12.5688C27.934 13.0109 24.176 13.6404 20.2756 14.3853C20.2756 14.3853 14.1616 15.4932 10.3631 16.656C6.20478 17.9288 0 20.7431 0 20.7431V9.49821C0 9.49821 6.49673 6.86086 10.8578 5.88293C15.0273 4.94792 17.173 4.60619 21.2632 4.07528C23.9449 3.72719 25.7035 3.60551 27.8711 3.45554H27.8712L27.8715 3.45551C28.9732 3.37929 30.1806 3.29575 31.6685 3.17146C31.6685 3.17146 38.5519 2.46005 42.9787 2.26763C47.7688 2.05947 49.4989 2.10055 54.7606 2.22549C55.3155 2.23867 55.9097 2.25278 56.551 2.26763C56.551 2.26763 67.0373 2.68249 73.7425 3.17146L96.3629 5.43101C96.3629 5.43101 109.889 6.66653 118.531 7.69057L135.722 9.95013L162.414 14.0173C162.414 14.0173 181.426 17.4037 193.631 19.4403C193.631 19.4403 205.47 21.4779 213.084 22.6037C222.601 24.0107 237.514 25.767 237.514 25.767C240.549 26.1388 243.206 26.4867 245.699 26.8133C252.053 27.6453 257.343 28.3382 265.111 28.9304C271.815 29.4411 275.582 29.6426 282.302 29.8342C290.249 30.0602 294.713 30.0502 302.661 29.8342C303.591 29.8091 304.432 29.7905 305.223 29.773C308.038 29.7107 310.217 29.6625 313.519 29.3823C318.672 28.9455 321.57 28.6031 326.638 27.5747L327.125 27.4761L327.13 27.4751C330.4 26.8125 332.392 26.4088 335.687 25.3151C339.143 24.1678 345.187 21.2479 345.187 21.2479L351.444 18.123V37.55ZM351.975 17.8577L351.444 18.123V-60.0917L116.874 -60.698L351.975 -60.9994V17.8577ZM0 -61V-60.5481L116.874 -60.698L0 -61Z" fill="url(#paint1_linear_260_113)"/>
<path fill-rule="evenodd" clip-rule="evenodd" d="M351.444 37.55H159.641L152.292 34.8211C145.28 32.3451 140.275 30.9281 134.326 29.2439L134.325 29.2439C132.475 28.7201 130.534 28.1704 128.412 27.555L105.433 21.1973L89.6633 17.5642L73.4428 14.3853L65.3325 13.4771C65.3325 13.4771 56.333 12.7697 53.1672 12.5688C52.2688 12.5118 51.4827 12.4553 50.7449 12.4023L50.7445 12.4023C48.8824 12.2686 47.3284 12.157 45.0569 12.1147C40.3036 12.0261 37.6272 12.1465 32.8915 12.5688C27.934 13.0109 24.176 13.6404 20.2756 14.3853C20.2756 14.3853 14.1616 15.4932 10.3631 16.656C6.20478 17.9288 0 20.7431 0 20.7431V9.49821C0 9.49821 6.49673 6.86086 10.8578 5.88293C15.0273 4.94792 17.173 4.60619 21.2632 4.07528C23.9449 3.72719 25.7035 3.60551 27.8711 3.45554H27.8712L27.8715 3.45551C28.9732 3.37929 30.1806 3.29575 31.6685 3.17146C31.6685 3.17146 38.5519 2.46005 42.9787 2.26763C47.7688 2.05947 49.4989 2.10055 54.7606 2.22549C55.3155 2.23867 55.9097 2.25278 56.551 2.26763C56.551 2.26763 67.0373 2.68249 73.7425 3.17146L96.3629 5.43101C96.3629 5.43101 109.889 6.66653 118.531 7.69057L135.722 9.95013L162.414 14.0173C162.414 14.0173 181.426 17.4037 193.631 19.4403C193.631 19.4403 205.47 21.4779 213.084 22.6037C222.601 24.0107 237.514 25.767 237.514 25.767C240.549 26.1388 243.206 26.4867 245.699 26.8133C252.053 27.6453 257.343 28.3382 265.111 28.9304C271.815 29.4411 275.582 29.6426 282.302 29.8342C290.249 30.0602 294.713 30.0502 302.661 29.8342C303.591 29.8091 304.432 29.7905 305.223 29.773C308.038 29.7107 310.217 29.6625 313.519 29.3823C318.672 28.9455 321.57 28.6031 326.638 27.5747L327.125 27.4761L327.13 27.4751C330.4 26.8125 332.392 26.4088 335.687 25.3151C339.143 24.1678 345.187 21.2479 345.187 21.2479L351.444 18.123V37.55ZM351.975 17.8577L351.444 18.123V-60.0917L116.874 -60.698L351.975 -60.9994V17.8577ZM0 -61V-60.5481L116.874 -60.698L0 -61Z" fill="black" fill-opacity="0.2"/>
</g>
<defs>
<linearGradient id="paint0_linear_260_113" x1="46.5" y1="45" x2="83" y2="-35" gradientUnits="userSpaceOnUse">
<stop stop-color="#306B9D"/>
<stop offset="0.483744" stop-color="#6BC7EE"/>
</linearGradient>
<linearGradient id="paint1_linear_260_113" x1="43.7052" y1="50.2615" x2="351.492" y2="19.411" gradientUnits="userSpaceOnUse">
<stop offset="0.0121457" stop-color="#245A8D"/>
<stop offset="0.735974" stop-color="#77DBFF"/>
</linearGradient>
<clipPath id="clip0_260_113">
<rect width="351" height="36" fill="white"/>
</clipPath>
</defs>
</svg>
